# xmcd
#
# Track frame offsets:
#	150
#	16952
#	34195
#	50070
#	67930
#	85620
#	102410
#	129245
#	140792
#	158642
#	174800
#	187090
#	203892
#	223845
#	243020
#
# Disc length: 3423 seconds
#
# Revision: 1
# Processed by: cddbd v1.5.2PL0 Copyright (c) Steve Scherf et al.
# Submitted via: audiograbber 1.83.01
#
DISCID=cb0d5d0f
DTITLE=Various Artist - Sound Choice 8628
DYEAR=1900
DGENRE=Country
TTITLE0=The Judds - Maybe Your Baby's Got The Blues
TTITLE1=Bellamy Brothers - Let Your Love Flow
TTITLE2=Alabama - Tennessee River
TTITLE3=Ricky Skaggs - Lovin' Only Me
TTITLE4=The Forester Sisters - Letter Home
TTITLE5=Clint Black - Nobody's Home
TTITLE6=Alabama - Dixieland Delight
TTITLE7=Loretta Lynn - They Don't Me 'Em Like My Daddy
TTITLE8=Eddie Rabbit - Rocky Mountain Music
TTITLE9=Hank Williams, Jr. - Heaven Can't Be Found
TTITLE10=George Jones - She's My Rock
TTITLE11=Dolly Parton - The Seeker
TTITLE12=Alabama - Fallin' Again
TTITLE13=The Judds - One Hundred And Two
TTITLE14=Reba McEntire - Have I Got A Deal For You
EXTD=Karaoke
EXTT0=
EXTT1=
EXTT2=
EXTT3=
EXTT4=
EXTT5=
EXTT6=
EXTT7=
EXTT8=
EXTT9=
EXTT10=
EXTT11=
EXTT12=
EXTT13=
EXTT14=
PLAYORDER=
